<svg width="43" height="40" viewBox="0 0 43 40" fill="none" xmlns="http://www.w3.org/2000/svg">
<path opacity="0.4" d="M27.3229 28.3777L27.3229 9.95561C27.3229 8.82841 27.3229 7.91914 27.2686 7.17913C27.2128 6.41821 27.0951 5.74535 26.8114 5.10823C26.1295 3.5768 24.8216 2.36009 23.1753 1.72575C22.4904 1.46185 21.7671 1.35239 20.9491 1.30048C20.1536 1.24999 19.1761 1.24999 17.9644 1.25H12.4939C11.2822 1.24999 10.3047 1.24998 9.5092 1.30048C8.6912 1.35239 7.96788 1.46185 7.28297 1.72575C5.63669 2.36009 4.32872 3.57681 3.64681 5.10823C3.36311 5.74535 3.24545 6.41821 3.18964 7.17913C3.13536 7.91914 3.13537 8.8284 3.13538 9.9556V28.3777C3.13537 29.5049 3.13536 30.4142 3.18964 31.1542C3.24545 31.9151 3.36311 32.588 3.64681 33.2251C4.32872 34.7565 5.63669 35.9732 7.28297 36.6076C7.96788 36.8715 8.6912 36.9809 9.50919 37.0329C10.3047 37.0833 11.2822 37.0833 12.4939 37.0833H17.9644C19.1761 37.0833 20.1535 37.0833 20.9491 37.0329C21.7671 36.9809 22.4904 36.8715 23.1753 36.6076C24.8216 35.9732 26.1295 34.7565 26.8114 33.2251C27.0951 32.588 27.2128 31.9151 27.2686 31.1542C27.3229 30.4142 27.3229 29.5049 27.3229 28.3777Z" fill="#0D0B4E"/>
<path fill-rule="evenodd" clip-rule="evenodd" d="M39.5959 18.4167C39.9542 18.8611 39.9542 19.4722 39.5959 19.9167L34.2209 26.5833C33.7756 27.1356 32.9333 27.2476 32.3396 26.8333C31.7459 26.4191 31.6256 25.6356 32.0709 25.0833L35.8334 20.4167L11.6459 20.4167C10.9037 20.4167 10.3021 19.857 10.3021 19.1667C10.3021 18.4763 10.9037 17.9167 11.6459 17.9167L35.8334 17.9167L32.0709 13.25C31.6256 12.6977 31.7459 11.9142 32.3396 11.5C32.9333 11.0858 33.7756 11.1977 34.2209 11.75L39.5959 18.4167Z" fill="#0D0B4E"/>
</svg>
