<svg width="110" height="113" viewBox="0 0 110 113" fill="none" xmlns="http://www.w3.org/2000/svg">
<rect x="50.4166" y="56.5" width="9.16666" height="9.18125" rx="1" fill="#0D0B4E"/>
<rect x="50.4166" y="80.0417" width="9.16666" height="9.18125" rx="1" fill="#0D0B4E"/>
<rect x="73.3334" y="56.5" width="9.16666" height="9.18125" rx="1" fill="#F25B3B"/>
<rect x="73.3334" y="80.0417" width="9.16666" height="9.18125" rx="1" fill="#0D0B4E"/>
<rect x="27.5" y="56.5" width="9.16667" height="9.18125" rx="1" fill="#0D0B4E"/>
<rect x="27.5" y="80.0417" width="9.16667" height="9.18125" rx="1" fill="#0D0B4E"/>
<path opacity="0.4" fill-rule="evenodd" clip-rule="evenodd" d="M83.3824 15.4447C81.3474 15.302 78.8469 15.3021 75.7471 15.3021H34.2529C31.1531 15.3021 28.6526 15.302 26.6176 15.4447C24.5251 15.5913 22.6747 15.9006 20.9226 16.6461C16.7112 18.4381 13.3652 21.8753 11.6208 26.2016C11.5301 26.4266 11.446 26.6531 11.3681 26.8816C10.8223 28.4805 10.5762 30.171 10.4513 32.0519C10.434 32.3132 10.4188 32.582 10.4055 32.8585C10.3125 34.7942 10.3125 37.1091 10.3125 39.8954V82.5212C10.3125 85.7056 10.3125 88.2743 10.4513 90.3648C10.5941 92.5144 10.8951 94.4152 11.6208 96.2151C13.3652 100.541 16.7112 103.979 20.9226 105.771C22.6747 106.516 24.5251 106.825 26.6176 106.972C28.6526 107.115 31.1531 107.115 34.2529 107.115H75.7471C78.8469 107.115 81.3474 107.115 83.3824 106.972C85.4749 106.825 87.3253 106.516 89.0774 105.771C93.2888 103.979 96.6348 100.541 98.3792 96.2151C99.1049 94.4152 99.4059 92.5144 99.5487 90.3648C99.6875 88.2743 99.6875 85.7056 99.6875 82.5213V39.8954C99.6875 36.7111 99.6875 34.1424 99.5487 32.0519C99.4059 29.9023 99.1049 28.0015 98.3792 26.2016C96.6348 21.8753 93.2888 18.4381 89.0774 16.6461C87.3253 15.9006 85.4749 15.5913 83.3824 15.4447ZM17.1875 50.6146H92.8125V82.3958C92.8125 85.7349 92.8106 88.0623 92.6896 89.884C92.5708 91.6741 92.3484 92.7165 92.0275 93.5124C90.9809 96.1082 88.9733 98.1705 86.4464 99.2457C85.6717 99.5753 84.6569 99.8037 82.9144 99.9259C81.141 100.05 78.8754 100.052 75.625 100.052H34.375C31.1246 100.052 28.859 100.05 27.0856 99.9259C25.3431 99.8037 24.3283 99.5753 23.5536 99.2457C21.0267 98.1705 19.0192 96.1082 17.9725 93.5124C17.6516 92.7165 17.4293 91.6741 17.3104 89.884C17.1894 88.0623 17.1875 85.7349 17.1875 82.3958V50.6146Z" fill="#0A1363"/>
<path fill-rule="evenodd" clip-rule="evenodd" d="M32.0834 5.88542C33.9819 5.88542 35.5209 7.46641 35.5209 9.41667V28.25C35.5209 30.2003 33.9819 31.7813 32.0834 31.7813C30.1849 31.7813 28.6459 30.2003 28.6459 28.25V9.41667C28.6459 7.46641 30.1849 5.88542 32.0834 5.88542Z" fill="#0D0B4E"/>
<path fill-rule="evenodd" clip-rule="evenodd" d="M77.9166 5.88542C79.8151 5.88542 81.3541 7.46641 81.3541 9.41667V28.25C81.3541 30.2003 79.8151 31.7813 77.9166 31.7813C76.0181 31.7813 74.4791 30.2003 74.4791 28.25V9.41667C74.4791 7.46641 76.0181 5.88542 77.9166 5.88542Z" fill="#0D0B4E"/>
</svg>
