<svg width="110" height="113" viewBox="0 0 110 113" fill="none" xmlns="http://www.w3.org/2000/svg">
<g filter="url(#filter0_d_2_1638)">
<path opacity="0.4" d="M24.3947 43.8951C23.3297 43.3741 22.079 43.4505 21.0816 44.0975C20.0842 44.7444 19.4794 45.8716 19.4794 47.0833L19.4792 65.6077C19.4779 69.419 19.477 72.048 20.1563 74.4601C21.0589 77.6654 22.8272 80.5423 25.2562 82.7575C27.0842 84.4246 29.3951 85.554 32.7454 87.1914L44.994 93.1831C47.5611 94.4398 49.3358 95.3085 51.2123 95.7441C53.7061 96.3229 56.2942 96.3229 58.7881 95.7441C60.6646 95.3085 62.4392 94.4398 65.0064 93.1831L77.255 87.1914C80.6052 85.5541 82.9162 84.4246 84.7442 82.7575C87.1732 80.5423 88.9415 77.6654 89.8441 74.4601C90.5233 72.048 90.5224 69.419 90.5211 65.6077L90.521 47.0833C90.521 45.8716 89.9162 44.7444 88.9188 44.0975C87.9213 43.4505 86.6706 43.3741 85.6056 43.8951L62.3897 55.2518C59.3543 56.7367 58.3075 57.2262 57.2729 57.4663C55.7766 57.8136 54.2238 57.8136 52.7275 57.4663C51.6929 57.2262 50.6461 56.7367 47.6107 55.2518L24.3947 43.8951Z" fill="#302F4B"/>
<path fill-rule="evenodd" clip-rule="evenodd" d="M100.833 34.1354C102.732 34.1354 104.271 35.7164 104.271 37.6667V63.5625C104.271 65.5128 102.732 67.0938 100.833 67.0938C98.9349 67.0938 97.3959 65.5128 97.3959 63.5625V37.6667C97.3959 35.7164 98.9349 34.1354 100.833 34.1354Z" fill="#0D0B4E"/>
<path d="M56.5373 10.9666C55.5695 10.4695 54.4304 10.4695 53.4627 10.9666L7.62933 34.5082C6.46476 35.1064 5.72913 36.3291 5.72913 37.6667C5.72913 39.0042 6.46476 40.2269 7.62933 40.8251L53.4627 64.3668C54.4304 64.8639 55.5695 64.8639 56.5373 64.3668L102.371 40.8251C103.535 40.2269 104.271 39.0042 104.271 37.6667C104.271 36.3291 103.535 35.1064 102.371 34.5082L56.5373 10.9666Z" fill="#0D0B4E"/>
</g>
<defs>
<filter id="filter0_d_2_1638" x="-4" y="0" width="118" height="121" filterUnits="userSpaceOnUse" color-interpolation-filters="sRGB">
<feFlood flood-opacity="0" result="BackgroundImageFix"/>
<feColorMatrix in="SourceAlpha" type="matrix" values="0 0 0 0 0 0 0 0 0 0 0 0 0 0 0 0 0 0 127 0" result="hardAlpha"/>
<feOffset dy="4"/>
<feGaussianBlur stdDeviation="2"/>
<feComposite in2="hardAlpha" operator="out"/>
<feColorMatrix type="matrix" values="0 0 0 0 0 0 0 0 0 0 0 0 0 0 0 0 0 0 0.25 0"/>
<feBlend mode="normal" in2="BackgroundImageFix" result="effect1_dropShadow_2_1638"/>
<feBlend mode="normal" in="SourceGraphic" in2="effect1_dropShadow_2_1638" result="shape"/>
</filter>
</defs>
</svg>
